<?xml version="1.0" encoding="utf-8"?>
<!-- Generator: Adobe Illustrator 26.4.1, SVG Export Plug-In . SVG Version: 6.00 Build 0)  -->
<svg version="1.1" id="Layer_1" xmlns="http://www.w3.org/2000/svg" xmlns:xlink="http://www.w3.org/1999/xlink" x="0px" y="0px"
	 viewBox="0 0 256 256" style="enable-background:new 0 0 256 256;" xml:space="preserve">
<style type="text/css">
	.st0{fill:#D083EA;}
	.st1{fill:#A51CC6;}
</style>
<rect class="st0" width="256" height="256"/>
<g>
	<path d="M13.89,98.08l7.15-0.69c0.43,2.4,1.3,4.16,2.62,5.29s3.09,1.69,5.32,1.69c2.37,0,4.15-0.5,5.35-1.5
		c1.2-1,1.8-2.17,1.8-3.51c0-0.86-0.25-1.59-0.76-2.2c-0.5-0.6-1.39-1.13-2.64-1.58c-0.86-0.3-2.82-0.83-5.88-1.59
		c-3.94-0.98-6.7-2.18-8.29-3.6c-2.23-2-3.35-4.44-3.35-7.32c0-1.85,0.52-3.59,1.58-5.2c1.05-1.61,2.56-2.84,4.54-3.69
		s4.36-1.27,7.16-1.27c4.57,0,8,1,10.31,3s3.52,4.67,3.64,8.02l-7.35,0.32c-0.31-1.87-0.99-3.21-2.02-4.03s-2.58-1.23-4.65-1.23
		c-2.13,0-3.81,0.44-5.01,1.32c-0.78,0.56-1.17,1.31-1.17,2.26c0,0.86,0.36,1.6,1.09,2.21c0.93,0.78,3.18,1.59,6.75,2.43
		s6.22,1.72,7.93,2.62s3.05,2.13,4.02,3.7c0.97,1.56,1.45,3.5,1.45,5.79c0,2.08-0.58,4.04-1.74,5.86s-2.8,3.17-4.91,4.06
		c-2.12,0.89-4.76,1.33-7.92,1.33c-4.6,0-8.13-1.06-10.6-3.19C15.84,105.25,14.37,102.15,13.89,98.08z"/>
	<path d="M56.54,109.92V73.53h7.35v36.38L56.54,109.92L56.54,109.92z"/>
	<path d="M77.9,109.92V73.53h11l6.6,24.82l6.53-24.82h11.02v36.38h-6.82V81.28L99,109.92h-7.07l-7.2-28.64v28.64H77.9z"/>
	<path d="M127.45,109.92V73.53h11.79c4.47,0,7.38,0.18,8.74,0.55c2.08,0.55,3.83,1.73,5.24,3.56s2.11,4.19,2.11,7.09
		c0,2.23-0.41,4.11-1.22,5.63s-1.84,2.72-3.09,3.59c-1.25,0.87-2.52,1.44-3.81,1.72c-1.75,0.35-4.29,0.52-7.62,0.52h-4.79v13.72
		h-7.35V109.92z M134.8,79.69v10.32h4.02c2.89,0,4.83-0.19,5.81-0.57s1.74-0.98,2.3-1.79c0.55-0.81,0.83-1.75,0.83-2.83
		c0-1.32-0.39-2.42-1.17-3.28s-1.76-1.4-2.95-1.61c-0.88-0.17-2.64-0.25-5.29-0.25h-3.55V79.69z"/>
	<path d="M168.67,109.92V73.83h7.35v29.95h18.27v6.13h-25.62V109.92z"/>
	<path d="M206.63,109.92V73.53h26.97v6.15h-19.63v8.07h18.27v6.13h-18.27v9.9h20.32v6.13h-27.66V109.92z"/>
	<path d="M14.99,162.13l11.44-1.11c0.69,3.84,2.08,6.66,4.19,8.46c2.1,1.8,4.94,2.7,8.52,2.7c3.79,0,6.64-0.8,8.56-2.4
		c1.92-1.6,2.88-3.47,2.88-5.62c0-1.38-0.4-2.55-1.21-3.51c-0.81-0.97-2.22-1.81-4.23-2.52c-1.38-0.48-4.51-1.32-9.41-2.54
		c-6.3-1.56-10.72-3.48-13.26-5.76c-3.57-3.2-5.36-7.11-5.36-11.71c0-2.96,0.84-5.74,2.52-8.32s4.1-4.55,7.27-5.9
		c3.16-1.35,6.98-2.02,11.46-2.02c7.31,0,12.81,1.6,16.5,4.8c3.69,3.2,5.63,7.48,5.82,12.83l-11.75,0.52
		c-0.5-2.99-1.58-5.14-3.24-6.45c-1.65-1.31-4.14-1.97-7.45-1.97c-3.42,0-6.09,0.7-8.02,2.1c-1.24,0.9-1.87,2.1-1.87,3.61
		c0,1.38,0.58,2.55,1.75,3.53c1.48,1.24,5.08,2.54,10.8,3.89s9.95,2.75,12.69,4.19c2.74,1.44,4.88,3.42,6.43,5.92
		s2.32,5.59,2.32,9.27c0,3.33-0.93,6.46-2.78,9.37c-1.85,2.91-4.47,5.08-7.86,6.49c-3.39,1.42-7.61,2.12-12.67,2.12
		c-7.36,0-13.01-1.7-16.96-5.1C18.11,173.6,15.76,168.64,14.99,162.13z"/>
	<path d="M155.82,181.07v-48.36h-17.27v-9.85h46.26v9.85h-17.23v48.36H155.82z"/>
	<path d="M193.77,181.07v-58.21h18.86c7.15,0,11.81,0.29,13.98,0.87c3.34,0.87,6.13,2.77,8.38,5.7c2.25,2.93,3.38,6.7,3.38,11.34
		c0,3.57-0.65,6.58-1.95,9.01c-1.3,2.44-2.95,4.35-4.94,5.74c-2,1.39-4.03,2.31-6.1,2.76c-2.81,0.56-6.87,0.83-12.19,0.83h-7.66
		v21.96H193.77z M205.52,132.71v16.52h6.43c4.63,0,7.73-0.3,9.29-0.91s2.79-1.56,3.67-2.86c0.89-1.3,1.33-2.8,1.33-4.53
		c0-2.12-0.62-3.86-1.87-5.24s-2.82-2.24-4.73-2.58c-1.4-0.26-4.22-0.4-8.46-0.4H205.52z"/>
</g>
<rect x="64.76" y="122.86" width="71.57" height="59.24"/>
<polygon class="st1" points="127.45,173.33 72.94,173.33 72.94,132.71 100.2,153.9 127.45,132.71 "/>
</svg>
